<?xml version="1.0" standalone="no"?><!-- Generator: Gravit.io --><svg xmlns="http://www.w3.org/2000/svg" xmlns:xlink="http://www.w3.org/1999/xlink" style="isolation:isolate" viewBox="0 0 400 400" width="400" height="400"><defs><clipPath id="_clipPath_zzyKVCbdxfLNNRr2Z8z1b8SsMcBgUF7o"><rect width="400" height="400"/></clipPath></defs><g clip-path="url(#_clipPath_zzyKVCbdxfLNNRr2Z8z1b8SsMcBgUF7o)"><path d=" M 78.346 334.95 L 51.275 31.33 L 348.725 31.33 L 321.629 334.901 L 199.818 368.67 L 78.346 334.95 Z " fill="rgb(21,114,182)"/><path d=" M 200.002 342.859 L 298.429 315.571 L 321.586 56.156 L 200.002 56.156 L 200.002 342.859 Z " fill="rgb(51,169,220)"/><g><path d=" M 200.001 166.156 L 249.276 166.156 L 252.679 128.024 L 200.001 128.024 L 200.001 90.785 L 200.13 90.785 L 293.376 90.785 L 292.483 100.776 L 283.331 203.392 L 200.001 203.392 L 200.001 166.156 Z " fill="rgb(255,255,255)"/><path d=" M 200.224 262.864 L 200.061 262.91 L 158.589 251.711 L 155.937 222.013 L 135.786 222.013 L 118.558 222.013 L 123.774 280.48 L 200.052 301.656 L 200.224 301.608 L 200.224 262.864 Z " fill="rgb(235,235,235)"/><path d=" M 246.111 201.816 L 241.627 251.686 L 200.095 262.896 L 200.095 301.638 L 276.434 280.48 L 276.994 274.19 L 283.472 201.816 L 246.111 201.816 Z " fill="rgb(255,255,255)"/><path d=" M 200.13 90.785 L 200.13 113.913 L 200.13 127.932 L 200.13 128.024 L 110.302 128.024 L 110.302 128.024 L 110.183 128.024 L 109.436 119.654 L 107.739 100.776 L 106.849 90.785 L 200.13 90.785 Z " fill="rgb(235,235,235)"/><path d=" M 200.001 166.16 L 200.001 189.289 L 200.001 203.306 L 200.001 203.398 L 159.173 203.398 L 159.173 203.398 L 159.054 203.398 L 158.308 195.028 L 156.61 176.151 L 155.72 166.16 L 200.001 166.16 Z " fill="rgb(235,235,235)"/></g></g></svg>