<?xml version="1.0" standalone="no"?><!-- Generator: Gravit.io --><svg xmlns="http://www.w3.org/2000/svg" xmlns:xlink="http://www.w3.org/1999/xlink" style="isolation:isolate" viewBox="0 0 400 400" width="400" height="400"><defs><clipPath id="_clipPath_WCRjqEwJkW7Xp0mr9Xk1qlSi9iYex8HN"><rect width="400" height="400"/></clipPath></defs><g clip-path="url(#_clipPath_WCRjqEwJkW7Xp0mr9Xk1qlSi9iYex8HN)"><g><path d=" M 78.345 334.95 L 51.275 31.33 L 348.725 31.33 L 321.627 334.901 L 199.818 368.67 L 78.345 334.95 Z " fill="rgb(228,79,38)"/><path d=" M 200 342.859 L 298.427 315.571 L 321.585 56.155 L 200 56.155 L 200 342.859 Z " fill="rgb(241,102,42)"/><path d=" M 200 168.764 L 150.725 168.764 L 147.321 130.632 L 200 130.632 L 200 93.393 L 199.871 93.393 L 106.625 93.393 L 107.517 103.384 L 116.669 206 L 200 206 L 200 168.764 Z " fill="rgb(235,235,235)"/><path d=" M 200 265.472 L 199.837 265.518 L 158.365 254.319 L 155.713 224.621 L 135.562 224.621 L 118.333 224.621 L 123.55 283.088 L 199.828 304.264 L 200 304.216 L 200 265.472 Z " fill="rgb(235,235,235)"/><path d=" M 199.871 168.764 L 199.871 206 L 245.725 206 L 241.403 254.294 L 199.871 265.504 L 199.871 304.246 L 276.211 283.088 L 276.77 276.798 L 285.521 178.763 L 286.429 168.764 L 276.395 168.764 L 199.871 168.764 Z " fill="rgb(255,255,255)"/><path d=" M 199.871 93.393 L 199.871 116.521 L 199.871 130.54 L 199.871 130.632 L 289.698 130.632 L 289.698 130.632 L 289.818 130.632 L 290.565 122.262 L 292.261 103.384 L 293.152 93.393 L 199.871 93.393 Z " fill="rgb(255,255,255)"/></g></g></svg>