<?xml version="1.0" standalone="no"?><!-- Generator: Gravit.io --><svg xmlns="http://www.w3.org/2000/svg" xmlns:xlink="http://www.w3.org/1999/xlink" style="isolation:isolate" viewBox="0 0 400 400" width="400" height="400"><defs><clipPath id="_clipPath_H9I2p3DEX3DlmrwEjAIohf4qqjmKdDtZ"><rect width="400" height="400"/></clipPath></defs><g clip-path="url(#_clipPath_H9I2p3DEX3DlmrwEjAIohf4qqjmKdDtZ)"><path d=" M 78.346 334.95 L 51.275 31.33 L 348.725 31.33 L 321.629 334.901 L 199.818 368.67 L 78.346 334.95 Z " fill="rgb(212,184,48)"/><path d=" M 200.002 342.859 L 298.429 315.571 L 321.586 56.156 L 200.002 56.156 L 200.002 342.859 L 200.002 342.859 Z " fill="rgb(253,216,60)"/><g><path d=" M 301.755 166.156 L 249.276 166.156 L 249.276 128.024 L 305.073 128.024 L 308.376 90.785 L 210.343 90.785 L 210.343 203.392 L 261.111 203.392 L 256.627 251.686 L 210.343 260.112 L 210.343 298.931 L 291.434 280.48 L 301.755 166.156 Z " fill="rgb(77,77,77)"/><path d=" M 190 90.785 L 106.849 90.785 L 110.302 128.039 L 152.621 128.039 L 152.621 254.745 L 131.88 251.711 L 129.228 222.013 C 129.228 222.013 104.309 222.013 91.849 222.013 L 97.065 280.48 C 190 298.93 97.417 280.466 190 298.93 L 190 90.785 Z " fill="rgb(0,0,0)"/></g></g></svg>