<?xml version="1.0" standalone="no"?><!-- Generator: Gravit.io --><svg xmlns="http://www.w3.org/2000/svg" xmlns:xlink="http://www.w3.org/1999/xlink" style="isolation:isolate" viewBox="0 0 400 400" width="400" height="400"><defs><clipPath id="_clipPath_hIu7cK4ULeNxWNHbMc8rbg7JH0Ss3FkW"><rect width="400" height="400"/></clipPath></defs><g clip-path="url(#_clipPath_hIu7cK4ULeNxWNHbMc8rbg7JH0Ss3FkW)"><ellipse vector-effect="non-scaling-stroke" cx="0" cy="0" rx="1" ry="1" transform="matrix(198.434,0,0,103.294,200,200)" fill="rgb(255,255,255)"/><ellipse vector-effect="non-scaling-stroke" cx="0" cy="0" rx="1" ry="1" transform="matrix(174.644,0,0,90.91,200,200)" fill="rgb(137,147,190)"/><path d=" M 74.4 253.829 L 93.54 156.937 L 137.797 156.937 C 156.935 158.133 166.505 167.702 166.505 184.45 C 166.505 213.158 143.778 229.905 123.442 228.708 L 101.913 228.708 L 97.128 253.829 L 74.4 253.829 Z  M 106.697 210.767 L 112.678 174.88 L 128.228 174.88 C 136.602 174.88 142.582 178.468 142.582 185.645 C 141.387 205.982 131.817 209.57 121.051 210.767 L 106.698 210.767 L 106.697 210.767 Z  M 162.059 228.708 L 181.197 131.818 L 203.925 131.818 L 199.14 156.937 L 220.671 156.937 C 239.811 158.133 246.987 167.702 244.596 179.665 L 236.222 228.708 L 212.299 228.708 L 220.672 184.45 C 221.867 178.468 221.867 174.88 213.495 174.88 L 195.552 174.88 L 184.787 228.708 L 162.059 228.708 L 162.059 228.708 Z  M 234.69 253.829 L 253.828 156.937 L 298.087 156.937 C 317.227 158.133 326.797 167.702 326.797 184.45 C 326.797 213.158 304.069 229.905 283.734 228.708 L 262.202 228.708 L 257.417 253.829 L 234.69 253.829 L 234.69 253.829 Z  M 266.985 210.767 L 272.967 174.88 L 288.519 174.88 C 296.892 174.88 302.872 178.468 302.872 185.645 C 301.677 205.982 292.107 209.57 281.342 210.767 L 266.987 210.767 L 266.985 210.767 Z " fill-rule="evenodd" fill="rgb(35,37,49)"/></g></svg>